# xmcd CD database file
#
# Track frame offsets:
#	150
#	7960
#	22705
#	34722
#	43787
#	55525
#	74587
#	87297
#	96940
#	110922
#	121242
#	131920
#	144855
#
# Disc length: 2169 seconds
#
# Revision: 0
# Processed by: cddbd v1.5.2PL0 Copyright (c) Steve Scherf et al.
# Submitted via: CDex 1.51
#
DISCID=a908770d
DTITLE=Various Artist - Home Among the Gumtrees CD2
DYEAR=1900
DGENRE=Country
TTITLE0=Our Don Bradman
TTITLE1=The Wild Colonial Boy
TTITLE2=Waltzing Matilda
TTITLE3=Theme from Rush
TTITLE4=The Melbourne Cup
TTITLE5=Santa never Made it to Darwin
TTITLE6=Flash jack from Gundagai
TTITLE7=The Ettamogah Pub
TTITLE8=Tie Me kangaroo Down, Sport
TTITLE9=Come on Aussie, Come On
TTITLE10=Medley: Along the Road to Gundagai - Where the Dog Sits on the Tuckerbox - I'm going back to Yarrawonga
TTITLE11=Theme from Cash and Co
TTITLE12=I still call Australia Home
EXTD=
EXTT0=
EXTT1=
EXTT2=
EXTT3=
EXTT4=
EXTT5=
EXTT6=
EXTT7=
EXTT8=
EXTT9=
EXTT10=
EXTT11=
EXTT12=
PLAYORDER=
